<?xml version="1.0" encoding="UTF-8" standalone="no"?>
<svg width="885px" height="272px" viewBox="0 0 885 272" version="1.1" xmlns="http://www.w3.org/2000/svg" xmlns:xlink="http://www.w3.org/1999/xlink" xmlns:sketch="http://www.bohemiancoding.com/sketch/ns">
    <!-- Generator: Sketch 3.2.2 (9983) - http://www.bohemiancoding.com/sketch -->
    <title>trello-logo-white</title>
    <desc>Created with Sketch.</desc>
    <defs></defs>
    <g id="Page-1" stroke="none" stroke-width="1" fill="none" fill-rule="evenodd" sketch:type="MSPage">
        <g id="Assets" sketch:type="MSArtboardGroup" transform="translate(-1510.000000, -84.000000)" fill="#FFFFFF">
            <g id="Trello-Logo" sketch:type="MSLayerGroup" transform="translate(20.000000, 20.000000)">
                <g id="Trello-Logo---White" transform="translate(1440.000000, 0.000000)" sketch:type="MSShapeGroup">
                    <g id="Logo" transform="translate(50.000000, 64.000000)">
                        <path d="M723.29354,178.589525 C710.522868,183.793147 700.445278,201.770881 685.1184,211.9888 C684.168,212.6224 683.2176,212.9392 682.584,212.9392 C681.3168,212.9392 679.7328,211.672 679.7328,205.9696 C679.7328,186.328 686.0688,176.824 691.4544,162.8848 C710.1456,114.4144 742.1424,72.9136 770.6544,27.6112 C772.872,24.1264 774.1392,20.3248 774.1392,16.2064 C774.1392,12.7216 772.872,9.8704 771.288,6.3856 C770.0208,3.5344 764.3184,1 757.9824,1 C754.4976,1 751.3296,1.3168 747.2112,1.3168 C732.3216,1.3168 729.1536,23.176 725.6688,28.8784 C701.9088,69.112 674.664,118.8496 660.7248,154.0144 C657.668102,161.897464 654.366309,169.780528 651.85663,177.871034 C638.081883,181.859826 627.762454,201.227697 611.6208,211.9888 C610.6704,212.6224 609.72,212.9392 609.0864,212.9392 C607.8192,212.9392 606.2352,211.672 606.2352,205.9696 C606.2352,186.328 612.5712,176.824 617.9568,162.8848 C636.648,114.4144 668.6448,72.9136 697.1568,27.6112 C699.3744,24.1264 700.6416,20.3248 700.6416,16.2064 C700.6416,12.7216 699.3744,9.8704 697.7904,6.3856 C696.5232,3.5344 690.8208,1 684.4848,1 C681,1 677.832,1.3168 673.7136,1.3168 C658.824,1.3168 655.656,23.176 652.1712,28.8784 C628.4112,69.112 601.1664,118.8496 587.2272,154.0144 C586.119038,156.872292 584.978662,159.730185 583.855495,162.597962 L583.855495,162.597962 C583.508659,162.783218 583.154477,162.984114 582.792,163.2016 C566.6352,172.7056 553.0128,189.496 533.3712,200.9008 C529.5696,203.1184 517.848,211.3552 508.344,211.3552 C506.1264,211.3552 504.2256,210.7216 502.3248,209.7712 C499.4736,208.504 496.6224,202.4848 496.6224,200.584 C496.6224,199 496.9392,198.6832 500.1072,196.7824 C527.9856,179.992 550.7952,155.9152 570.4368,131.8384 C577.7232,122.968 587.2272,105.544 587.2272,92.872 C587.2272,84.6352 584.376,75.1312 574.5552,71.6464 C567.5856,69.112 559.6656,67.8448 553.3296,67.8448 C536.5392,67.8448 524.184,75.448 517.2144,82.7344 C510.118962,90.3092596 503.25569,98.087265 496.87931,106.138685 C490.217004,100.38685 480.819897,97.9408 471.912,97.9408 C461.4576,97.9408 441.816,110.9296 431.6784,118.5328 C430.0944,119.8 429.144,120.4336 428.5104,120.4336 C428.1936,120.4336 427.8768,120.1168 427.8768,119.4832 C427.8768,119.1664 428.5104,116.3152 428.5104,111.2464 C428.5104,106.8112 427.56,101.1088 423.4416,94.1392 C422.4912,92.5552 416.7888,89.0704 409.8192,89.0704 C401.2656,89.0704 393.3456,93.1888 393.3456,97.624 C393.3456,100.792 396.1968,102.0592 396.1968,104.9104 C396.1968,106.4944 394.9296,113.7808 393.0288,120.7504 C387.6432,141.0256 380.9904,160.984 374.0208,180.9424 C370.2192,192.0304 357.5472,201.8512 357.5472,213.8896 C357.5472,217.6912 360.0816,222.76 363.5664,226.5616 C369.2688,232.8976 372.7536,235.1152 377.8224,235.1152 C380.04,235.1152 382.5744,234.4816 384.792,232.5808 C389.544,228.4624 392.0784,224.344 393.3456,218.6416 C401.5824,181.2592 425.3424,155.9152 451.6368,139.1248 C460.5072,133.4224 472.5456,127.4032 474.1296,127.4032 C475.753839,127.4032 478.294103,128.152675 480.853793,128.883111 L480.853793,128.883111 C473.503522,140.871969 467.547939,153.515386 463.6752,167.0032 C462.408,171.4384 461.7744,175.5568 461.7744,179.992 C461.7744,187.2784 463.3584,194.8816 465.8928,202.168 C469.3776,212.3056 475.08,221.176 483,225.2944 C497.5728,232.8976 508.0272,237.016 517.5312,237.016 C522.9168,237.016 527.0352,236.0656 531.4704,233.5312 C552.292673,221.750177 565.058884,212.81247 574.277157,204.873846 C574.529918,212.922923 576.116566,217.382314 581.8416,223.3936 C587.544,229.4128 596.4144,234.7984 608.136,237.3328 C610.0368,237.6496 611.9376,237.9664 613.8384,237.9664 C627.249499,237.9664 640.155947,227.065941 650.108075,216.260049 L650.108075,216.260049 C651.260342,218.618088 652.9348,220.86898 655.3392,223.3936 C661.0416,229.4128 669.912,234.7984 681.6336,237.3328 C683.5344,237.6496 685.4352,237.9664 687.336,237.9664 C703.045767,237.9664 718.063062,223.00902 728.45036,210.767345 C731.912282,217.927848 741.586543,225.007351 753.2304,230.68 C756.3984,232.264 760.2,233.2144 763.6848,233.2144 C777.3072,233.2144 787.128,222.1264 794.7312,213.8896 C814.3728,192.3472 825.144,165.736 833.3808,132.1552 C834.0144,129.6208 834.9648,128.6704 836.232,128.6704 C839.4,128.6704 843.5184,128.6704 847.9536,128.0368 C856.5072,126.7696 863.16,123.9184 871.08,122.6512 C875.832,121.7008 875.1984,120.1168 879.6336,118.5328 C882.8016,117.2656 885.336,115.9984 885.336,112.8304 C885.336,107.4448 875.5152,101.7424 860.6256,101.7424 C848.904,101.7424 841.9344,102.6928 837.1824,102.6928 C829.896,102.6928 827.9952,100.4752 823.2432,88.12 C823.2432,88.12 827.9952,100.4752 823.2432,88.12 C822.2928,85.5856 821.3424,84.3184 818.4912,81.784 C811.8384,76.0816 803.6016,74.1808 796.9488,74.1808 C781.1088,74.1808 767.4864,90.3376 757.9824,103.96 C755.7648,107.128 752.5968,109.6624 750.3792,113.1472 C737.329185,132.722222 724.834513,154.79629 723.29354,178.589525 L723.29354,178.589525 Z M318.264,70.696 C326.184,70.696 330.6192,70.0624 331.5696,70.0624 C332.52,70.0624 333.1536,70.3792 333.1536,71.3296 C333.1536,71.9632 332.8368,72.9136 330.6192,77.6656 C311.2944,119.1664 297.9888,161.3008 286.2672,207.8704 C285.9504,209.1376 285,213.8896 285,218.6416 C285,223.0768 286.2672,227.8288 290.7024,230.3632 C299.256,235.432 306.2256,237.6496 310.9776,237.6496 C317.9472,237.6496 321.432,233.2144 321.432,225.928 C321.432,219.592 321.7488,212.9392 322.6992,207.8704 C331.5696,161.3008 344.8752,124.8688 365.4672,86.8528 C375.288,68.7952 376.5552,67.8448 376.5552,66.2608 C376.5552,65.6272 376.2384,64.6768 375.6048,63.7264 C388.2768,60.8752 403.4832,58.9744 417.4224,58.9744 C419.0064,58.9744 425.3424,61.192 426.2928,62.1424 C428.5104,64.36 430.728,66.5776 434.5296,66.5776 C437.6976,66.5776 443.0832,64.36 444.984,63.0928 C449.4192,59.9248 451.6368,56.44 451.6368,50.7376 C451.6368,45.352 431.6784,32.0464 417.7392,32.0464 C400.632,32.0464 385.1088,34.264 370.536,37.1152 C364.2,38.3824 341.3904,41.8672 324.9168,41.8672 C309.0768,41.8672 310.0272,39.6496 303.3744,39.6496 C299.5728,39.6496 297.672,41.5504 296.088,43.1344 C294.504,44.7184 293.5536,51.0544 293.5536,56.7568 C293.5536,59.608 293.5536,61.8256 295.1376,63.7264 C299.8896,69.4288 309.0768,70.696 318.264,70.696 C318.264,70.696 309.0768,70.696 318.264,70.696 Z M553.0128,96.3568 C553.0128,99.208 552.0624,101.1088 548.2608,107.128 C544.4592,113.1472 546.0432,113.1472 541.2912,119.4832 C532.104,131.8384 520.6992,144.1936 505.8096,157.816 C501.6912,161.6176 501.0576,161.6176 500.424,161.6176 C500.1072,161.6176 499.4736,161.3008 499.4736,160.6672 C499.4736,159.7168 499.7904,158.4496 502.9584,151.7968 C512.7792,131.2048 524.8176,117.5824 538.1232,104.2768 C545.4096,96.9904 549.8448,94.456 551.4288,94.456 C552.3792,94.456 553.0128,94.7728 553.0128,96.3568 C553.0128,96.3568 553.0128,94.7728 553.0128,96.3568 Z M796.632,104.5936 C796.9488,104.5936 797.2656,104.9104 797.5824,105.544 C797.8992,106.4944 798.5328,107.4448 800.1168,108.712 C801.384,109.6624 801.384,114.0976 801.384,117.5824 C801.384,148.312 783.96,173.656 766.8528,199.3168 C763.0512,205.0192 760.8336,205.9696 758.9328,205.9696 C757.3488,205.9696 754.8144,201.8512 753.864,199.3168 C752.5968,195.832 752.28,191.7136 752.28,190.1296 C752.28,165.4192 775.7232,128.6704 791.2464,108.3952 C793.7808,104.9104 795.6816,104.5936 796.632,104.5936 C796.632,104.5936 795.6816,104.5936 796.632,104.5936 Z" id="Type"></path>
                        <path d="M75.0013814,36 C61.1934997,36 50,47.1994381 50,61.0013814 L50,210.998619 C50,224.8065 61.1994381,236 75.0013814,236 L224.998619,236 C238.8065,236 250,224.800562 250,210.998619 L250,61.0013814 C250,47.1934997 238.800562,36 224.998619,36 L75.0013814,36 Z M174.997036,62 C168.371256,62 163,67.3723251 163,74.0055478 L163,137.994452 C163,144.624933 168.373226,150 174.997036,150 L212.002964,150 C218.628744,150 224,144.627675 224,137.994452 L224,74.0055478 C224,67.3750668 218.626774,62 212.002964,62 L174.997036,62 Z M87.997036,62 C81.371256,62 76,67.3674094 76,74.0051853 L76,187.994815 C76,194.625095 81.3732256,200 87.997036,200 L125.002964,200 C131.628744,200 137,194.632591 137,187.994815 L137,74.0051853 C137,67.3749046 131.626774,62 125.002964,62 L87.997036,62 Z" id="Board"></path>
                    </g>
                </g>
            </g>
        </g>
    </g>
</svg>